<?xml version="1.0" encoding="UTF-8"?>
<svg version="1.1" xmlns="http://www.w3.org/2000/svg" width="1024" height="1024">
<path d="M0 0 C337.92 0 675.84 0 1024 0 C1024 337.92 1024 675.84 1024 1024 C686.08 1024 348.16 1024 0 1024 C0 686.08 0 348.16 0 0 Z " fill="#FCFCFC" transform="translate(0,0)"/>
<path d="M0 0 C10.56 0 21.12 0 32 0 C32 10.23 32 20.46 32 31 C21.77 31 11.54 31 1 31 C1 38.92 1 46.84 1 55 C3.31 54.95875 5.62 54.9175 8 54.875 C15.73873172 54.84424787 22.15985268 54.90586361 28.29760742 60.20825195 C32.12003291 64.23130955 34.91404973 69.08175514 37.875 73.75 C38.62121253 74.91087085 39.36829853 76.07118064 40.11621094 77.23095703 C42.0445893 80.22642285 43.96130225 83.2291598 45.87463379 86.23425293 C47.64784763 89.01650026 49.42976245 91.79315744 51.2109375 94.5703125 C53.88318609 98.73946914 56.55054172 102.91169894 59.21484375 107.0859375 C62.7217935 112.57406878 66.25898675 118.04192693 69.8125 123.5 C70.6022522 124.71320923 70.6022522 124.71320923 71.40795898 125.95092773 C72.93827352 128.30085701 74.46909358 130.65045629 76 133 C97.1132377 165.4071661 97.1132377 165.4071661 96 174 C93.69259054 180.09168912 89.8324653 185.54206178 86.25 190.9375 C85.09149957 192.69989781 83.93399518 194.46295065 82.77734375 196.2265625 C81.86057861 197.62310059 81.86057861 197.62310059 80.92529297 199.04785156 C77.51477454 204.27737082 74.16788567 209.5475098 70.8125 214.8125 C66.14430472 222.12802441 61.43611457 229.40725051 56.58520508 236.6027832 C53.29268758 241.50804694 50.14145467 246.4969793 47 251.5 C45.00296008 254.66854313 43.00229678 257.83477675 41 261 C40.54028809 261.72912598 40.08057617 262.45825195 39.60693359 263.20947266 C28.68853903 280.43715366 28.68853903 280.43715366 21 283 C18.64319787 283.08397157 16.28405919 283.10728187 13.92578125 283.09765625 C12.90003242 283.09553383 12.90003242 283.09553383 11.8535614 283.09336853 C9.67316278 283.08777876 7.49286749 283.07522822 5.3125 283.0625 C3.83268378 283.05748367 2.35286594 283.052921 0.87304688 283.04882812 C-2.75133557 283.03781271 -6.3756577 283.02055512 -10 283 C-8.58931962 279.10682256 -6.75501201 275.87175135 -4.47265625 272.421875 C-3.76858643 271.35227539 -3.0645166 270.28267578 -2.33911133 269.18066406 C-1.58024453 268.03710696 -0.82137401 266.89355232 -0.0625 265.75 C0.717072 264.56772504 1.49612098 263.38510506 2.2746582 262.20214844 C3.81624206 259.86024859 5.35953182 257.51949008 6.90429688 255.1796875 C9.51733853 251.21507258 12.10990781 247.23773035 14.6875 243.25 C15.1095874 242.59741211 15.5316748 241.94482422 15.96655273 241.27246094 C20.28121914 234.58696464 24.54325968 227.86793226 28.80932617 221.15136719 C32.34761028 215.58422158 35.90931917 210.03346465 39.5 204.5 C40.37240658 203.14844443 41.24480218 201.79688179 42.1171875 200.4453125 C44.31042047 197.05150724 46.53217011 193.6773142 48.7578125 190.3046875 C50.04727029 188.32838285 51.33633661 186.35182273 52.625 184.375 C53.24181641 183.45009766 53.85863281 182.52519531 54.49414062 181.57226562 C58.96634686 174.83704113 58.96634686 174.83704113 60 167 C58.69130754 164.06143982 56.90038912 161.58472842 55 159 C53.88489361 157.4088296 52.77170456 155.81631426 51.66015625 154.22265625 C51.06477051 153.37977051 50.46938477 152.53688477 49.85595703 151.66845703 C46.60678856 146.9968691 43.53063625 142.21320116 40.4375 137.4375 C39.15509434 135.4673526 37.87254438 133.49729912 36.58984375 131.52734375 C33.12192944 126.19089786 29.66367737 120.84825593 26.20947266 115.50292969 C22.25679032 109.38933095 18.28702314 103.28691889 14.3125 97.1875 C13.67111084 96.20241455 13.02972168 95.2173291 12.36889648 94.20239258 C8.38502754 88.09317419 4.35508685 82.02172928 0.22265625 76.01171875 C-1 74 -1 74 -1 72 C-2.06436279 72.02618408 -3.12872559 72.05236816 -4.2253418 72.0793457 C-8.18541327 72.17004776 -12.14539351 72.22732089 -16.10620117 72.2746582 C-17.81827245 72.29975714 -19.53023704 72.33384429 -21.24194336 72.37719727 C-23.70713645 72.43805739 -26.17090985 72.46625432 -28.63671875 72.48828125 C-29.77919319 72.52699089 -29.77919319 72.52699089 -30.94474792 72.56648254 C-35.0095468 72.56861352 -36.76334971 72.19230642 -39.96020508 69.59448242 C-44.22969523 64.16397711 -43.29650641 58.13766671 -43.35009766 51.50683594 C-43.36662195 50.00928163 -43.39386606 48.51180505 -43.43212891 47.01464844 C-43.48718342 44.84789414 -43.5088139 42.68298656 -43.5234375 40.515625 C-43.54325684 39.21915039 -43.56307617 37.92267578 -43.58349609 36.58691406 C-42.82602585 31.93053211 -41.5732714 30.06994056 -38 27 C-35.12649007 26.16631758 -32.39567363 26.16075189 -29.41796875 26.1953125 C-28.19670036 26.17475296 -28.19670036 26.17475296 -26.95075989 26.15377808 C-24.36244188 26.11652894 -21.77604762 26.12018902 -19.1875 26.125 C-17.42770445 26.10686946 -15.66793428 26.08606564 -13.90820312 26.0625 C-9.60434949 26.00568345 -5.30550628 26.00424816 -1 26 C-0.67 17.42 -0.34 8.84 0 0 Z " fill="#8A17FB" transform="translate(334,342)"/>
<path d="M0 0 C1.24394531 0.00644531 2.48789063 0.01289063 3.76953125 0.01953125 C5.69732422 0.04466797 5.69732422 0.04466797 7.6640625 0.0703125 C8.97246094 0.07933594 10.28085938 0.08835937 11.62890625 0.09765625 C14.8491462 0.12116165 18.06900957 0.15402163 21.2890625 0.1953125 C21.7840625 1.1853125 21.7840625 1.1853125 22.2890625 2.1953125 C21.56738281 3.80493164 21.56738281 3.80493164 20.3671875 5.73046875 C19.92439453 6.44855713 19.48160156 7.16664551 19.02539062 7.90649414 C18.53490234 8.6824292 18.04441406 9.45836426 17.5390625 10.2578125 C17.03826172 11.06275146 16.53746094 11.86769043 16.02148438 12.69702148 C11.3196702 20.22419052 6.50238479 27.6771099 1.65087891 35.10839844 C-4.7595158 44.9320008 -11.10596306 54.79579945 -17.3984375 64.6953125 C-22.619347 72.90893357 -27.84582203 81.11892677 -33.0859375 89.3203125 C-33.72748779 90.32642578 -34.36903809 91.33253906 -35.0300293 92.36914062 C-35.65433838 93.34560547 -36.27864746 94.32207031 -36.921875 95.328125 C-37.53256836 96.28750977 -38.14326172 97.24689453 -38.77246094 98.23535156 C-40.14198146 100.32654385 -41.55620644 102.38878179 -43.00097656 104.42871094 C-44.11424316 106.01087402 -44.11424316 106.01087402 -45.25 107.625 C-45.93529785 108.57358887 -46.6205957 109.52217773 -47.32666016 110.49951172 C-48.93324922 113.07505478 -48.93324922 113.07505478 -48.58251953 115.78344727 C-47.69279034 118.2455298 -46.6783094 120.17964131 -45.2265625 122.35546875 C-44.71013184 123.13881592 -44.19370117 123.92216309 -43.66162109 124.72924805 C-43.10039551 125.56367432 -42.53916992 126.39810059 -41.9609375 127.2578125 C-40.77062629 129.05715472 -39.58052809 130.85663787 -38.390625 132.65625 C-37.77928711 133.5750293 -37.16794922 134.49380859 -36.53808594 135.44042969 C-33.68998799 139.73464899 -30.88889668 144.05905402 -28.0859375 148.3828125 C-26.99490053 150.06126869 -25.90375602 151.73965498 -24.8125 153.41796875 C-22.45447305 157.04776499 -20.10273472 160.68155885 -17.75439453 164.31762695 C-12.60175462 172.295563 -7.41167222 180.24867172 -2.2109375 188.1953125 C2.71876235 195.72854394 7.64566996 203.26342782 12.5390625 210.8203125 C12.95607422 211.46355469 13.37308594 212.10679687 13.80273438 212.76953125 C14.96991377 214.57492203 16.12980873 216.38482519 17.2890625 218.1953125 C17.75248047 218.90913086 18.21589844 219.62294922 18.69335938 220.35839844 C19.15291016 221.07543945 19.61246094 221.79248047 20.0859375 222.53125 C20.50713867 223.18399902 20.92833984 223.83674805 21.36230469 224.50927734 C22.2890625 226.1953125 22.2890625 226.1953125 22.2890625 228.1953125 C18.02076779 228.31988109 13.75346454 228.4100989 9.48388672 228.4699707 C8.03480576 228.49495486 6.58584875 228.52895519 5.13720703 228.57250977 C-10.46807833 229.02959083 -10.46807833 229.02959083 -16.7109375 223.1953125 C-22.61589636 217.49032237 -26.64647471 209.62932169 -30.9296875 202.671875 C-33.82419776 197.98483588 -36.82247634 193.36898705 -39.8359375 188.7578125 C-44.7549463 181.22297797 -49.62140768 173.65642646 -54.4609375 166.0703125 C-58.72874204 159.38095878 -63.01709755 152.70642716 -67.3671875 146.0703125 C-67.75255676 145.48234894 -68.13792603 144.89438538 -68.53497314 144.28860474 C-70.39571166 141.45157461 -72.25995075 138.61694157 -74.12792969 135.78466797 C-84.27864558 120.34438237 -84.27864558 120.34438237 -84.2109375 115.2578125 C-84.22125 114.48566406 -84.2315625 113.71351563 -84.2421875 112.91796875 C-82.80698459 105.56255385 -77.91139471 99.20847275 -73.8359375 93.0703125 C-72.66962614 91.29489243 -71.50429571 89.51882766 -70.33984375 87.7421875 C-69.74059082 86.82888672 -69.14133789 85.91558594 -68.52392578 84.97460938 C-65.57022223 80.44660491 -62.67048992 75.88469805 -59.7734375 71.3203125 C-59.19287598 70.40620605 -58.61231445 69.49209961 -58.01416016 68.55029297 C-56.83484013 66.69288835 -55.65580393 64.83530349 -54.47705078 62.97753906 C-50.98238371 57.47225485 -47.47952611 51.97217587 -43.9765625 46.47216797 C-40.96571564 41.74361606 -37.96069975 37.01150378 -34.96484375 32.2734375 C-34.34673828 31.29761719 -33.72863281 30.32179688 -33.09179688 29.31640625 C-31.92320898 27.47126746 -30.7563918 25.62500538 -29.59179688 23.77734375 C-14.43438604 -0.13242556 -14.43438604 -0.13242556 0 0 Z " fill="#096DD9" transform="translate(158.7109375,396.8046875)"/>
<path d="M0 0 C6.93 0 13.86 0 21 0 C21.33 14.85 21.66 29.7 22 45 C24.31 42.69 26.62 40.38 29 38 C37.6982572 32.39773265 46.85636627 31.59973028 57 33 C66.18182586 35.46804303 73.81942607 41.0974296 79 49 C86.96242208 63.53295547 88.9776966 81.26059562 84.375 97.3125 C79.80285565 109.41992059 72.73899203 118.73837479 60.82421875 124.30859375 C53.35196457 127.14069009 43.59185617 127.41152722 35.9375 125.05859375 C33.46930356 123.85835798 31.2533909 122.56366479 29 121 C28.07574219 120.37158203 28.07574219 120.37158203 27.1328125 119.73046875 C23.8404471 117.24937999 22.13083727 114.95793046 21 111 C19.68737429 112.08552366 19.68737429 112.08552366 19.90234375 114.72265625 C19.91394531 115.82480469 19.92554688 116.92695312 19.9375 118.0625 C19.958125 120.021875 19.97875 121.98125 20 124 C13.4 124 6.8 124 0 124 C0 83.08 0 42.16 0 0 Z " fill="#0C2063" transform="translate(870,446)"/>
<path d="M0 0 C9.88805145 7.41603859 17.71576194 16.59985053 20 29 C20 30.32 20 31.64 20 33 C12.41 33 4.82 33 -3 33 C-3.804375 31.14375 -4.60875 29.2875 -5.4375 27.375 C-9.35385776 19.56986445 -14.36217686 16.27920429 -22.3125 13.125 C-31.13802819 10.54191858 -40.62682919 11.26601842 -49 15 C-57.38393504 19.67104952 -62.06994684 26.83550448 -65.375 35.6875 C-69.39122572 50.06491307 -68.92345582 68.16953935 -61.6796875 81.4140625 C-56.97785675 88.27411065 -49.96400187 93.54359309 -42 96 C-32.16410199 97.5270497 -22.02826115 97.01587717 -13.390625 91.81640625 C-5.05457454 85.48264242 -4.5079074 79.86759874 -2 69 C-12.23 69 -22.46 69 -33 69 C-33 63.06 -33 57.12 -33 51 C-15.18 51 2.64 51 21 51 C20.67 72.12 20.34 93.24 20 115 C14.06 115 8.12 115 2 115 C1.67 109.72 1.34 104.44 1 99 C-0.03125 100.216875 -1.0625 101.43375 -2.125 102.6875 C-8.37366633 109.787688 -15.35611996 115.64485724 -25 117 C-28.25103671 117.16492118 -31.49524484 117.18509264 -34.75 117.1875 C-35.6059375 117.19974609 -36.461875 117.21199219 -37.34375 117.22460938 C-51.66200328 117.25715086 -63.38282872 112.3126719 -73.75390625 102.33984375 C-86.77680504 88.77338049 -92.60224201 72.47365832 -92.5 53.8125 C-92.49572998 52.62865723 -92.49145996 51.44481445 -92.48706055 50.22509766 C-92.3019172 40.65128931 -90.89683863 32.76518828 -87 24 C-86.62746094 23.13890625 -86.25492187 22.2778125 -85.87109375 21.390625 C-79.37007047 8.25266855 -67.5094729 -1.00043129 -54 -6 C-36.09531383 -11.63749565 -15.99839897 -10.29110496 0 0 Z " fill="#0B1F63" transform="translate(560,455)"/>
<path d="M0 0 C2.01822917 0.06510417 4.03645833 0.13020833 6.0546875 0.1953125 C6.0546875 3.1653125 6.0546875 6.1353125 6.0546875 9.1953125 C6.3846875 9.1953125 6.7146875 9.1953125 7.0546875 9.1953125 C7.26408107 17.88833757 7.42355963 26.58048278 7.52099705 35.2754879 C7.56778606 39.31396511 7.63114092 43.35070579 7.73364258 47.38818359 C7.83211199 51.29168113 7.88538238 55.19351913 7.90858269 59.0981636 C7.92509393 60.58060441 7.95733867 62.06296375 8.00625801 63.54468918 C8.24544144 71.09615399 8.13297651 76.88983789 2.88061523 82.80126953 C1.30050922 84.29669132 -0.306232 85.76477537 -1.9453125 87.1953125 C-3.02383659 88.28885542 -4.09485091 89.38991689 -5.15429688 90.50195312 C-6.11336184 91.45437086 -7.07493746 92.40426737 -8.0390625 93.3515625 C-8.55666138 93.86537476 -9.07426025 94.37918701 -9.60754395 94.90856934 C-11.2176308 96.50670161 -12.83101993 98.10142941 -14.4453125 99.6953125 C-16.60444104 101.82784767 -18.76020838 103.96370193 -20.9140625 106.1015625 C-21.40563843 106.58484009 -21.89721436 107.06811768 -22.40368652 107.56604004 C-25.89676039 111.03355102 -27.06456519 112.72443532 -27.10353088 117.61184692 C-27.1133197 118.5401532 -27.12310852 119.46845947 -27.13319397 120.42489624 C-27.13894943 121.44628693 -27.1447049 122.46767761 -27.15063477 123.52001953 C-27.16053436 124.59320435 -27.17043396 125.66638916 -27.18063354 126.77209473 C-27.21231408 130.33241543 -27.23703188 133.89274949 -27.26171875 137.453125 C-27.28228262 139.91649734 -27.30327893 142.3798661 -27.32469177 144.8432312 C-27.37997103 151.33694571 -27.42935446 157.83069238 -27.47753906 164.32446289 C-27.5277114 170.94680656 -27.58341971 177.56910336 -27.63867188 184.19140625 C-27.74632503 197.19266832 -27.84775406 210.19397104 -27.9453125 223.1953125 C-31.9053125 223.1953125 -35.8653125 223.1953125 -39.9453125 223.1953125 C-39.93576538 221.21337891 -39.93576538 221.21337891 -39.92602539 219.19140625 C-39.91153552 214.26337728 -39.9430325 209.3365065 -39.98803711 204.40869141 C-40.00113231 202.28080191 -40.00195207 200.15279851 -39.98999023 198.02490234 C-39.97490933 194.95557862 -40.00476815 191.8893808 -40.04296875 188.8203125 C-40.02871353 187.87728271 -40.01445831 186.93425293 -39.99977112 185.96264648 C-40.13688944 179.62920376 -41.64638048 176.40377065 -46.09178162 171.88305664 C-48.54982945 169.64486581 -51.04057131 167.45613433 -53.578125 165.30859375 C-56.65953649 162.5576967 -59.54378759 159.6337335 -62.4453125 156.6953125 C-65.91760636 153.18297082 -69.37399725 149.71767299 -73.1328125 146.5078125 C-90.35830953 131.76922375 -90.35830953 131.76922375 -91.9453125 121.1953125 C-92.06184579 118.4317079 -92.13288521 115.69364626 -92.1484375 112.9296875 C-92.15413757 112.13685364 -92.15983765 111.34401978 -92.16571045 110.52716064 C-92.1751304 108.85291872 -92.18168245 107.1786585 -92.18554688 105.50439453 C-92.19522807 102.96743679 -92.22626925 100.43129838 -92.2578125 97.89453125 C-92.34873497 84.87663478 -90.79682383 76.8428359 -82.6953125 66.3828125 C-82.09066162 65.57094482 -81.48601074 64.75907715 -80.86303711 63.92260742 C-77.57854524 59.53248667 -74.18965782 55.26711283 -70.65234375 51.078125 C-62.09265211 41.52086639 -62.09265211 41.52086639 -59.53442383 29.51147461 C-59.80947698 27.52362249 -60.15724371 25.54624565 -60.5078125 23.5703125 C-60.98271785 19.90675698 -60.73156182 18.53971616 -58.8203125 15.4453125 C-56.06777061 11.97204933 -52.92469091 9.1850017 -48.9453125 7.1953125 C-43.09055539 6.70202495 -37.75546969 6.33786962 -32.3828125 8.8828125 C-27.57486231 13.44420114 -24.19121011 17.24454121 -23.6328125 23.9453125 C-23.79405558 29.03869691 -24.84875311 33.87558993 -28.33984375 37.73828125 C-30.97308099 40.01153163 -33.70824885 41.93350627 -36.9453125 43.1953125 C-38.7379913 43.03991 -40.52959946 42.87193077 -42.3203125 42.6953125 C-46.98412839 43.0235908 -49.2999763 44.19824934 -52.3515625 47.59375 C-55.45668806 51.44675507 -58.29848073 55.48060062 -61.10595703 59.55371094 C-63.60994784 63.1498326 -66.23780306 66.64776872 -68.86181641 70.15673828 C-70.67818036 72.58869198 -72.48341015 75.02802237 -74.27734375 77.4765625 C-75.01561401 78.48299805 -75.01561401 78.48299805 -75.76879883 79.50976562 C-82.23729247 88.7769331 -79.72246432 110.15147351 -78.38458252 121.00421143 C-76.95378759 128.14108888 -71.89849617 132.399066 -66.2265625 136.41796875 C-65.52055908 136.86769043 -64.81455566 137.31741211 -64.0871582 137.78076172 C-57.70174193 141.99791684 -52.38277639 147.67752576 -47.12109375 153.1796875 C-44.87351209 155.26182778 -42.58589721 156.66053911 -39.9453125 158.1953125 C-39.95863617 157.61617096 -39.97195984 157.03702942 -39.98568726 156.44033813 C-40.11918262 150.37272518 -40.20923306 144.30553414 -40.27490234 138.23681641 C-40.30494011 135.9768782 -40.34578337 133.71705525 -40.39794922 131.45751953 C-40.47133729 128.19534766 -40.50490013 124.93472628 -40.53125 121.671875 C-40.56221771 120.67354645 -40.59318542 119.6752179 -40.62509155 118.64663696 C-40.62863638 111.13562017 -38.65519031 106.06324659 -33.9453125 100.1953125 C-31.87293305 98.15047857 -29.65568988 96.51024995 -27.26953125 94.8515625 C-17.30330898 87.16413347 -6.88021392 79.11047074 -4.56347656 66.08642578 C-2.92354227 52.32430291 -3.71782247 38.27921189 -4.91511536 24.50636292 C-4.94866161 21.93899807 -4.47214433 19.70249464 -3.9453125 17.1953125 C-3.9659375 15.9990625 -3.9865625 14.8028125 -4.0078125 13.5703125 C-3.9453125 10.1953125 -3.9453125 10.1953125 -1.9453125 7.1953125 C-2.6053125 7.1953125 -3.2653125 7.1953125 -3.9453125 7.1953125 C-4.0703125 4.8203125 -4.0703125 4.8203125 -3.9453125 2.1953125 C-1.9453125 0.1953125 -1.9453125 0.1953125 0 0 Z " fill="#6944F1" transform="translate(267.9453125,401.8046875)"/>
<path d="M0 0 C8.1881557 9.35789223 9.5281567 19.08724074 9.5 31.0625 C9.51773511 32.57725936 9.53788292 34.09199218 9.56030273 35.60668945 C9.61077599 39.58299893 9.62349649 43.55843517 9.62359619 47.53503418 C9.62502093 50.03675911 9.63433979 52.53834207 9.64599609 55.04003906 C9.69114087 65.02723538 9.67964091 75.0128566 9.625 85 C2.695 85 -4.235 85 -11.375 85 C-11.705 81.7 -12.035 78.4 -12.375 75 C-13.344375 75.886875 -14.31375 76.77375 -15.3125 77.6875 C-25.46799811 86.38044159 -35.27400709 87.97298169 -48.375 87 C-55.26974465 85.27631384 -61.81784436 81.02615994 -65.66015625 74.9765625 C-69.78967223 67.01355319 -70.79561944 58.86701317 -68.125 50.1875 C-65.93201165 44.42075286 -63.00095123 40.81850772 -57.453125 37.89526367 C-48.65858578 34.10654477 -38.80905348 32.88312491 -29.4375 31.3125 C-28.13748047 31.08755859 -26.83746094 30.86261719 -25.49804688 30.63085938 C-15.91612842 29 -15.91612842 29 -11.375 29 C-12.33027593 20.06526031 -12.33027593 20.06526031 -17.375 13 C-22.65283819 10.29671702 -28.57902375 10.44717961 -34.375 11 C-39.13352474 12.643854 -41.57069483 14.84547383 -44.375 19 C-44.705 19.99 -45.035 20.98 -45.375 22 C-52.635 22 -59.895 22 -67.375 22 C-64.08698552 11.03995174 -60.35451858 3.6124414 -50.375 -2 C-35.17086532 -9.2744894 -14.38924573 -8.52696043 0 0 Z " fill="#0C1F63" transform="translate(761.375,485)"/>
<path d="M0 0 C6.93 0 13.86 0 21 0 C21.33 14.52 21.66 29.04 22 44 C24.31 41.69 26.62 39.38 29 37 C36.47593403 31.1554124 44.96729991 31.01169546 54.05419922 31.76074219 C62.0873206 32.74850366 68.79972275 36.87522902 74 43 C77.90897629 49.39827463 80.12764392 54.96578929 80.11352539 62.4909668 C80.11367142 63.1448941 80.11381744 63.79882141 80.1139679 64.4725647 C80.11327188 66.63148326 80.10549408 68.79031528 80.09765625 70.94921875 C80.09579096 72.44708713 80.09436758 73.94495611 80.09336853 75.44282532 C80.08955207 79.38345019 80.0797292 83.32403814 80.06866455 87.26464844 C80.05843172 91.28645325 80.0538669 95.30826404 80.04882812 99.33007812 C80.03810616 107.2200709 80.02051639 115.11002661 80 123 C73.07 123 66.14 123 59 123 C58.98541748 121.32043213 58.97083496 119.64086426 58.95581055 117.91040039 C58.90394172 112.33032033 58.83859877 106.75050412 58.76428509 101.17067814 C58.71975971 97.79113766 58.68046594 94.41171278 58.65356445 91.03198242 C58.61986885 87.13691389 58.56754295 83.24246297 58.51171875 79.34765625 C58.50532883 78.1473024 58.4989389 76.94694855 58.49235535 75.71022034 C58.35114441 67.57390531 57.85004761 60.42005713 52.5 54 C47.56373611 50.05098889 42.05304672 50.53104086 36 51 C30.97524521 52.67491826 27.83108326 55.57771412 25 60 C21.70974104 66.95014276 21.53018168 73.19447993 21.48828125 80.8125 C21.47033005 82.02196289 21.45237885 83.23142578 21.43388367 84.47753906 C21.37995487 88.31832454 21.34593986 92.15898695 21.3125 96 C21.27931166 98.61329831 21.24482061 101.22658041 21.20898438 103.83984375 C21.12423792 110.22647349 21.05734299 116.61306781 21 123 C14.07 123 7.14 123 0 123 C0 82.41 0 41.82 0 0 Z " fill="#0A1E61" transform="translate(597,447)"/>
<path d="M0 0 C5.62175193 3.37093772 9.80544699 7.6354707 11.640625 14.05859375 C12.313966 20.00643928 11.01396948 24.22835557 7.640625 29.05859375 C4.93209359 31.84554589 2.12781524 34.31499863 -1.359375 36.05859375 C-1.93138472 38.0235805 -2.44136881 40.00675168 -2.921875 41.99609375 C-4.94607829 48.69990681 -7.69784924 52.61256437 -12.68798828 57.43408203 C-14.80246207 59.48925419 -16.87428508 61.58461291 -18.94921875 63.6796875 C-23.39689712 68.16206531 -27.87079743 72.61720323 -32.359375 77.05859375 C-30.95723209 80.63371639 -30.95723209 80.63371639 -29.26171875 84.07421875 C-27.50783225 87.93125054 -27.75829401 91.93158407 -28.359375 96.05859375 C-30.12806874 100.50689646 -31.96445205 103.44251764 -36.4140625 105.40771484 C-39.81870674 108.47200755 -39.83079477 109.09617634 -40.13232422 113.46972656 C-40.17330626 115.73337773 -40.18180274 117.99776614 -40.1640625 120.26171875 C-40.17776886 121.45464539 -40.19147522 122.64757202 -40.20559692 123.87664795 C-40.2429942 127.68767678 -40.23917498 131.49740699 -40.234375 135.30859375 C-40.25249472 137.89194754 -40.27329509 140.47528403 -40.296875 143.05859375 C-40.34881828 149.39214567 -40.36379889 155.72484045 -40.359375 162.05859375 C-44.319375 162.05859375 -48.279375 162.05859375 -52.359375 162.05859375 C-52.359375 144.23859375 -52.359375 126.41859375 -52.359375 108.05859375 C-54.009375 107.39859375 -55.659375 106.73859375 -57.359375 106.05859375 C-59.125 104.40234375 -59.125 104.40234375 -60.609375 102.55859375 C-61.10953125 101.95015625 -61.6096875 101.34171875 -62.125 100.71484375 C-65.56281767 96.10207574 -64.85433054 90.57381262 -64.359375 85.05859375 C-62.88790591 80.13005874 -59.54486723 77.00418447 -55.53125 74.00390625 C-53.359375 73.05859375 -53.359375 73.05859375 -49.60546875 72.91015625 C-43.91870475 72.30596215 -41.22299726 68.44831452 -37.671875 64.30859375 C-36.28504255 62.75168426 -34.89568322 61.19702224 -33.50390625 59.64453125 C-32.81506348 58.86948242 -32.1262207 58.09443359 -31.41650391 57.29589844 C-29.49086721 55.20160285 -27.50703035 53.23199081 -25.43359375 51.28515625 C-24.52710083 50.43002441 -24.52710083 50.43002441 -23.60229492 49.55761719 C-22.47045783 48.50299044 -21.32659495 47.46107179 -20.16918945 46.43457031 C-17.2999852 43.71980175 -16.3905141 42.28458811 -15.84375 38.31640625 C-16.00338568 34.82216772 -16.00338568 34.82216772 -19.109375 33.05859375 C-20.181875 32.39859375 -21.254375 31.73859375 -22.359375 31.05859375 C-26.30452959 25.73693663 -27.89919484 20.64439585 -27.359375 14.05859375 C-25.38292031 7.89110262 -21.70306458 3.64171739 -16.359375 0.05859375 C-11.10943366 -1.6913867 -5.20936337 -2.07857049 0 0 Z " fill="#7D1EF7" transform="translate(317.359375,462.94140625)"/>
<path d="M0 0 C6.93 0 13.86 0 21 0 C21 40.59 21 81.18 21 123 C14.07 123 7.14 123 0 123 C0 82.41 0 41.82 0 0 Z " fill="#0B2063" transform="translate(789,447)"/>
<path d="M0 0 C5.22468645 3.02538312 8.49907342 7.70394157 10.828125 13.18359375 C13.32667917 22.82574143 13.05462924 35.20546902 9.0078125 44.33203125 C5.48239119 50.12081476 0.54104121 53.24314006 -5.9140625 55.09375 C-11.60553139 56.0577773 -16.4932051 55.42681061 -21.625 52.8125 C-29.00579879 46.46158011 -31.70440538 40.40757487 -32.5625 30.66015625 C-32.77494349 21.19314322 -31.35610724 13.01111501 -25.3125 5.5 C-18.29381655 -1.59581184 -9.60911984 -4.21094634 0 0 Z " fill="#FBFBFC" transform="translate(922.3125,498.5)"/>
<path d="M0 0 C6.93 0 13.86 0 21 0 C21 29.37 21 58.74 21 89 C14.07 89 7.14 89 0 89 C0 59.63 0 30.26 0 0 Z " fill="#0A1D60" transform="translate(829,481)"/>
<path d="M0 0 C10.56 0 21.12 0 32 0 C32 9.9 32 19.8 32 30 C27.19824219 29.98839844 22.39648438 29.97679687 17.44921875 29.96484375 C14.40950386 29.95973499 11.36979425 29.95492106 8.33007812 29.95117188 C3.50397647 29.94519119 -1.32210625 29.93811148 -6.14819336 29.92456055 C-10.03852229 29.91370528 -13.92883091 29.90771755 -17.81917381 29.90512276 C-19.3043468 29.90327328 -20.78951865 29.89966179 -22.274683 29.89426994 C-24.3528243 29.88702451 -26.43088133 29.88601054 -28.5090332 29.88647461 C-29.69261917 29.884254 -30.87620514 29.88203339 -32.09565735 29.87974548 C-35.06698472 29.86860025 -35.06698472 29.86860025 -38 31 C-40.44779884 35.07966474 -41.1422957 38.84198388 -41.31640625 43.54296875 C-41.35830078 44.61611328 -41.40019531 45.68925781 -41.44335938 46.79492188 C-41.48267578 47.91447266 -41.52199219 49.03402344 -41.5625 50.1875 C-41.60568359 51.31865234 -41.64886719 52.44980469 -41.69335938 53.61523438 C-41.79949099 56.41003354 -41.90154385 59.20492162 -42 62 C-41.34 62 -40.68 62 -40 62 C-38 66.75 -38 66.75 -38 69 C-34.18422037 70.20205614 -30.35364011 70.22194982 -26.390625 70.31640625 C-25.30041046 70.3475779 -25.30041046 70.3475779 -24.18817139 70.37937927 C-21.87554009 70.44455512 -19.56279907 70.5036104 -17.25 70.5625 C-15.67837425 70.60571566 -14.10675944 70.64933092 -12.53515625 70.69335938 C-8.69021547 70.80020356 -4.84516476 70.90156024 -1 71 C-1 71.33 -1 71.66 -1 72 C-6.03530963 72.1238722 -11.06972697 72.21446514 -16.10620117 72.2746582 C-17.81827245 72.29975714 -19.53023704 72.33384429 -21.24194336 72.37719727 C-23.70713645 72.43805739 -26.17090985 72.46625432 -28.63671875 72.48828125 C-29.77919319 72.52699089 -29.77919319 72.52699089 -30.94474792 72.56648254 C-35.0095468 72.56861352 -36.76334971 72.19230642 -39.96020508 69.59448242 C-44.22969523 64.16397711 -43.29650641 58.13766671 -43.35009766 51.50683594 C-43.36662195 50.00928163 -43.39386606 48.51180505 -43.43212891 47.01464844 C-43.48718342 44.84789414 -43.5088139 42.68298656 -43.5234375 40.515625 C-43.54325684 39.21915039 -43.56307617 37.92267578 -43.58349609 36.58691406 C-42.82602585 31.93053211 -41.5732714 30.06994056 -38 27 C-35.12649007 26.16631758 -32.39567363 26.16075189 -29.41796875 26.1953125 C-28.19670036 26.17475296 -28.19670036 26.17475296 -26.95075989 26.15377808 C-24.36244188 26.11652894 -21.77604762 26.12018902 -19.1875 26.125 C-17.42770445 26.10686946 -15.66793428 26.08606564 -13.90820312 26.0625 C-9.60434949 26.00568345 -5.30550628 26.00424816 -1 26 C-0.67 17.42 -0.34 8.84 0 0 Z " fill="#7A1EF7" transform="translate(334,342)"/>
<path d="M0 0 C0.31290467 7.50971206 0.00511684 13.74168514 -4 20.25 C-8.2931689 24.83104903 -14.02688187 26.67088618 -20.140625 27.34765625 C-25.77338734 27.50720494 -29.29607477 27.33401016 -34 24 C-36.29537585 21.04880248 -36.32850974 17.86181261 -36.55859375 14.1953125 C-35.64487495 10.60433372 -33.88807894 8.21473358 -31 6 C-27.4155963 4.6044195 -23.77365653 3.89135609 -20 3.1875 C-18.52273438 2.88295898 -18.52273438 2.88295898 -17.015625 2.57226562 C-14.34745524 2.02601195 -11.67543866 1.50919807 -9 1 C-8.15179687 0.81477783 -7.30359375 0.62955566 -6.4296875 0.4387207 C-4 0 -4 0 0 0 Z " fill="#FAFAFB" transform="translate(750,528)"/>
<path d="M0 0 C8.25 0 16.5 0 25 0 C25 8.25 25 16.5 25 25 C16.75 25 8.5 25 0 25 C0 16.75 0 8.5 0 0 Z " fill="#306EE6" transform="translate(293,319)"/>
<path d="M0 0 C7.26 0 14.52 0 22 0 C22 6.6 22 13.2 22 20 C14.74 20 7.48 20 0 20 C0 13.4 0 6.8 0 0 Z " fill="#0C2267" transform="translate(829,446)"/>
<path d="M0 0 C0.99 0.33 1.98 0.66 3 1 C1.47757293 5.63687788 -1.05740795 8.9343228 -4.0625 12.6875 C-10.59597654 20.94368844 -10.50948987 27.3123935 -10.73461914 37.58154297 C-10.78606329 39.42675923 -10.86083151 41.27148962 -10.96020508 43.11474609 C-11.82952284 54.71458642 -11.82952284 54.71458642 -7.27099609 64.96582031 C-4.43292383 67.99968707 -1.34870777 70.54963386 2 73 C-2.16749013 73 -4.08382688 70.68384065 -7 68 C-8 67 -9 66 -10 65 C-10.66 64.67 -11.32 64.34 -12 64 C-14.67375377 60.27735735 -14.28861515 56.08106648 -14.265625 51.69140625 C-14.26753845 50.88767075 -14.2694519 50.08393524 -14.27142334 49.25584412 C-14.27278208 47.55882453 -14.26910734 45.86179444 -14.26074219 44.16479492 C-14.25005209 41.57511887 -14.26064058 38.98613871 -14.2734375 36.39648438 C-14.27211558 34.74479014 -14.2695525 33.09309634 -14.265625 31.44140625 C-14.26967346 30.67043106 -14.27372192 29.89945587 -14.27789307 29.1051178 C-14.24201573 24.96509724 -13.85670192 21.72400566 -12 18 C-11.34 18 -10.68 18 -10 18 C-9.87625 17.443125 -9.7525 16.88625 -9.625 16.3125 C-8.92924316 13.7381997 -8.16814704 11.40119114 -7 9 C-6.01 8.67 -5.02 8.34 -4 8 C-1.0208206 5.70832354 -0.4952217 3.66464055 0 0 Z " fill="#4A5CE9" transform="translate(200,464)"/>
<path d="M0 0 C0.33 0.66 0.66 1.32 1 2 C-0.21484375 4.29296875 -0.21484375 4.29296875 -2 7 C-2.57878906 7.88300781 -3.15757812 8.76601563 -3.75390625 9.67578125 C-4.35074219 10.54589844 -4.94757813 11.41601562 -5.5625 12.3125 C-6.16191406 13.19550781 -6.76132813 14.07851563 -7.37890625 14.98828125 C-8.18134766 15.98408203 -8.18134766 15.98408203 -9 17 C-9.66 17 -10.32 17 -11 17 C-10.979375 17.804375 -10.95875 18.60875 -10.9375 19.4375 C-11 22 -11 22 -12 23 C-12.1009825 25.64288357 -12.13970742 28.25906959 -12.1328125 30.90234375 C-12.13376923 31.69524307 -12.13472595 32.4881424 -12.13571167 33.30506897 C-12.13639351 34.9855253 -12.13453896 36.66598425 -12.13037109 38.34643555 C-12.1250299 40.92307445 -12.13031228 43.49953848 -12.13671875 46.07617188 C-12.13605783 47.70572955 -12.13477638 49.33528712 -12.1328125 50.96484375 C-12.13483673 51.73884018 -12.13686096 52.51283661 -12.13894653 53.31028748 C-12.20716414 57.28456623 -12.20716414 57.28456623 -11 61 C-11.9375 63.125 -11.9375 63.125 -13 65 C-15.50105833 61.24841251 -15.30595468 58.27553924 -15.30078125 53.9296875 C-15.30506638 53.13402374 -15.3093515 52.33835999 -15.31376648 51.51858521 C-15.31951013 49.83238678 -15.32000978 48.14616357 -15.31567383 46.45996094 C-15.31253703 43.90515566 -15.33589019 41.35153514 -15.36132812 38.796875 C-15.41718813 25.88719248 -14.00372083 17.7320025 -5.8125 7.4375 C-5.25369141 6.71498047 -4.69488281 5.99246094 -4.11914062 5.24804688 C-2.75682297 3.48984204 -1.38400498 1.74114687 0 0 Z " fill="#254CE4" transform="translate(191,461)"/>
<path d="M0 0 C1.50046875 0.00386719 1.50046875 0.00386719 3.03125 0.0078125 C4.0315625 0.00523437 5.031875 0.00265625 6.0625 0 C8.53125 0.1328125 8.53125 0.1328125 9.53125 1.1328125 C9.96166732 7.51311629 9.34703949 13.81044393 8.53125 20.1328125 C8.20125 20.1328125 7.87125 20.1328125 7.53125 20.1328125 C7.41855557 14.0222701 7.63520632 8.18110736 8.53125 2.1328125 C5.89125 2.4628125 3.25125 2.7928125 0.53125 3.1328125 C-0.12875 5.1128125 -0.78875 7.0928125 -1.46875 9.1328125 C-0.80875 9.1328125 -0.14875 9.1328125 0.53125 9.1328125 C0.20125 10.1228125 -0.12875 11.1128125 -0.46875 12.1328125 C-0.51272617 14.00729672 -0.50831902 15.88323007 -0.46875 17.7578125 C-0.43113799 19.54908433 -0.42207746 21.34175384 -0.46875 23.1328125 C-0.79875 23.4628125 -1.12875 23.7928125 -1.46875 24.1328125 C-1.59138388 25.69729633 -1.64654522 27.26714022 -1.67407227 28.83618164 C-1.69401749 29.83714371 -1.71396271 30.83810577 -1.73451233 31.86940002 C-1.75122482 32.9579277 -1.76793732 34.04645538 -1.78515625 35.16796875 C-1.80593735 36.27635605 -1.82671844 37.38474335 -1.84812927 38.52671814 C-1.91374623 42.08285058 -1.97256596 45.63905953 -2.03125 49.1953125 C-2.07442368 51.59961743 -2.11803758 54.00391449 -2.16210938 56.40820312 C-2.26943992 62.31632435 -2.37118331 68.22452241 -2.46875 74.1328125 C-2.79875 74.1328125 -3.12875 74.1328125 -3.46875 74.1328125 C-3.49187484 64.63206925 -3.5096658 55.13133562 -3.52056217 45.63057041 C-3.52579069 41.21944246 -3.53288777 36.8083337 -3.54418945 32.3972168 C-3.55501944 28.14380135 -3.56102707 23.89040441 -3.56362724 19.63697624 C-3.56548129 18.01059617 -3.56910152 16.38421716 -3.57448006 14.75784492 C-3.58169198 12.48771057 -3.58274088 10.21765365 -3.58227539 7.94750977 C-3.584496 6.65289322 -3.58671661 5.35827667 -3.58900452 4.02442932 C-3.42931176 0.18448829 -3.42931176 0.18448829 0 0 Z " fill="#C7ACFB" transform="translate(265.46875,399.8671875)"/>
<path d="M0 0 C2.375 1.5625 2.375 1.5625 4 4 C3.9375 7.625 3.9375 7.625 3 11 C0 13 0 13 -3.5625 12.8125 C-7 12 -7 12 -9 9 C-8.8125 5.4375 -8.8125 5.4375 -8 2 C-4.75173326 -0.16551116 -3.76905843 -0.55156953 0 0 Z " fill="#F8F4FC" transform="translate(312,474)"/>
<path d="M0 0 C0.33 0 0.66 0 1 0 C5.74707533 45.84055338 5.74707533 45.84055338 -3.1912384 58.17930603 C-8.94402046 65.03345704 -15.86690041 70.65217295 -23.1809082 75.76318359 C-26.01222856 78.00970278 -27.23464363 79.910875 -29 83 C-30.485 83.495 -30.485 83.495 -32 84 C-30.62687007 78.94975125 -27.54437576 76.85816288 -23.49609375 73.92578125 C-11.79295504 64.75241825 -1.03976135 55.89024256 0.87745667 40.38941956 C1.90917632 26.9484699 1.23744608 13.40768803 0 0 Z " fill="#5D17F3" transform="translate(263,424)"/>
<path d="M0 0 C7.26 0 14.52 0 22 0 C22 6.6 22 13.2 22 20 C14.74 20 7.48 20 0 20 C0 13.4 0 6.8 0 0 Z M1 2 C1 7.61 1 13.22 1 19 C7.27 19 13.54 19 20 19 C20 13.39 20 7.78 20 2 C13.73 2 7.46 2 1 2 Z " fill="#161E58" transform="translate(829,446)"/>
<path d="M0 0 C1.8125 1.125 1.8125 1.125 3 3 C3.39310741 6.14485925 3.47555213 8.13281671 1.9375 10.9375 C-1.21566824 12.66665678 -3.62508255 11.8590699 -7 11 C-9 8 -9 8 -8.8125 4.9375 C-7.47741613 0.1106583 -4.61266905 -0.57658363 0 0 Z " fill="#F7F5FB" transform="translate(228,421)"/>
<path d="M0 0 C1.9375 1.6875 1.9375 1.6875 3 4 C2.92196617 7.19938696 2.43745759 8.53129544 0.25 10.875 C-2 12 -2 12 -4.625 11.875 C-7 11 -7 11 -9 8 C-9.35384949 5.16920408 -9.3920891 3.63169911 -7.875 1.1875 C-5.09996189 -0.57002414 -3.21070255 -0.46822746 0 0 Z " fill="#F8F2FC" transform="translate(274,548)"/>
<path d="M0 0 C0.99 0.33 1.98 0.66 3 1 C1.29062018 6.20583853 -1.97258959 10.0033889 -5.3671875 14.18359375 C-10.03907773 20.05801194 -11.29454819 24.49802422 -11.4140625 31.92578125 C-11.43342865 32.67337204 -11.4527948 33.42096283 -11.4727478 34.19120789 C-11.53223918 36.56485806 -11.57880592 38.93855754 -11.625 41.3125 C-11.66320789 42.92775482 -11.70226125 44.54298987 -11.7421875 46.15820312 C-11.8379153 50.1053071 -11.92205767 54.05250639 -12 58 C-12.33 58 -12.66 58 -13 58 C-13.02467759 52.62484067 -13.04284928 47.24971415 -13.05493164 41.87451172 C-13.05996737 40.04507879 -13.06679627 38.21564991 -13.07543945 36.38623047 C-13.08753824 33.76008102 -13.09323583 31.13398468 -13.09765625 28.5078125 C-13.10281754 27.68693146 -13.10797882 26.86605042 -13.11329651 26.02029419 C-13.11387171 20.22774341 -13.11387171 20.22774341 -12 18 C-11.34 18 -10.68 18 -10 18 C-9.87625 17.443125 -9.7525 16.88625 -9.625 16.3125 C-8.92924316 13.7381997 -8.16814704 11.40119114 -7 9 C-6.01 8.67 -5.02 8.34 -4 8 C-1.0208206 5.70832354 -0.4952217 3.66464055 0 0 Z " fill="#253EE5" transform="translate(200,464)"/>
<path d="M0 0 C1.25683594 0.00322266 2.51367188 0.00644531 3.80859375 0.00976562 C5.12730469 0.01814453 6.44601563 0.02652344 7.8046875 0.03515625 C9.14452961 0.04017136 10.4843735 0.04473424 11.82421875 0.04882812 C15.10941956 0.06064539 18.39453147 0.07712008 21.6796875 0.09765625 C22.0096875 0.75765625 22.3396875 1.41765625 22.6796875 2.09765625 C21.3596875 3.41765625 20.0396875 4.73765625 18.6796875 6.09765625 C18.3496875 5.43765625 18.0196875 4.77765625 17.6796875 4.09765625 C16.99865967 4.07783691 16.31763184 4.05801758 15.6159668 4.03759766 C12.53264833 3.94238642 9.45001101 3.83269159 6.3671875 3.72265625 C4.7594043 3.67625 4.7594043 3.67625 3.11914062 3.62890625 C2.09111328 3.59023438 1.06308594 3.5515625 0.00390625 3.51171875 C-0.94395752 3.48029785 -1.89182129 3.44887695 -2.8684082 3.41650391 C-5.3203125 3.09765625 -5.3203125 3.09765625 -8.3203125 1.09765625 C-5.50207058 -0.31146471 -3.14779968 -0.01417928 0 0 Z " fill="#2B74DE" transform="translate(158.3203125,396.90234375)"/>
<path d="M0 0 C0.33 0 0.66 0 1 0 C1 8.91 1 17.82 1 27 C1.66 27 2.32 27 3 27 C5 31.75 5 31.75 5 34 C8.81577963 35.20205614 12.64635989 35.22194982 16.609375 35.31640625 C17.33618469 35.33718735 18.06299438 35.35796844 18.81182861 35.37937927 C21.12445991 35.44455512 23.43720093 35.5036104 25.75 35.5625 C27.32162575 35.60571566 28.89324056 35.64933092 30.46484375 35.69335938 C34.30978453 35.80020356 38.15483524 35.90156024 42 36 C42 36.33 42 36.66 42 37 C36.96469037 37.1238722 31.93027303 37.21446514 26.89379883 37.2746582 C25.18172755 37.29975714 23.46976296 37.33384429 21.75805664 37.37719727 C19.29286355 37.43805739 16.82909015 37.46625432 14.36328125 37.48828125 C13.22080681 37.52699089 13.22080681 37.52699089 12.05525208 37.56648254 C7.9904532 37.56861352 6.23665029 37.19230642 3.03979492 34.59448242 C-0.15656954 30.52892106 -0.11931124 28.39607493 -0.09765625 23.2421875 C-0.0962413 22.57913605 -0.09482635 21.91608459 -0.09336853 21.23294067 C-0.08776754 19.11358137 -0.075215 16.99432741 -0.0625 14.875 C-0.05748512 13.43880361 -0.05292219 12.00260556 -0.04882812 10.56640625 C-0.03779782 7.04423655 -0.02053259 3.52212855 0 0 Z " fill="#5A0BF8" transform="translate(291,377)"/>
<path d="M0 0 C1.46971936 0.00933756 2.93945439 0.01644922 4.40919495 0.0214386 C8.25812534 0.04043484 12.10609671 0.08946925 15.95465088 0.1449585 C19.88955719 0.1963121 23.82462005 0.21898679 27.75976562 0.24414062 C35.46658077 0.29759753 43.1726086 0.38281774 50.87890625 0.48828125 C50.87890625 0.81828125 50.87890625 1.14828125 50.87890625 1.48828125 C45.85833457 1.66357468 40.83751839 1.82935703 35.81640625 1.98828125 C34.68233841 2.02429443 34.68233841 2.02429443 33.52536011 2.06103516 C20.82709398 2.45513834 8.14667153 2.56907751 -4.55688477 2.45117188 C-5.77303467 2.44279297 -6.98918457 2.43441406 -8.2421875 2.42578125 C-9.30880615 2.41417969 -10.3754248 2.40257812 -11.47436523 2.390625 C-14.22901235 2.36812467 -14.22901235 2.36812467 -17.12109375 3.48828125 C-18.22945798 5.37144284 -18.22945798 5.37144284 -19.12109375 7.48828125 C-19.78109375 8.47828125 -20.44109375 9.46828125 -21.12109375 10.48828125 C-21.45109375 8.83828125 -21.78109375 7.18828125 -22.12109375 5.48828125 C-15.57389529 -0.83994736 -8.56992304 -0.16031099 0 0 Z " fill="#8431F7" transform="translate(313.12109375,369.51171875)"/>
<path d="M0 0 C0 3 0 3 -1.36108398 4.68579102 C-1.98313721 5.28576904 -2.60519043 5.88574707 -3.24609375 6.50390625 C-3.91833984 7.16197266 -4.59058594 7.82003906 -5.28320312 8.49804688 C-5.99412109 9.17931641 -6.70503906 9.86058594 -7.4375 10.5625 C-8.8341114 11.91582536 -10.22874302 13.27119774 -11.62109375 14.62890625 C-12.55586548 15.5271814 -12.55586548 15.5271814 -13.50952148 16.44360352 C-15.09713961 17.9479174 -15.09713961 17.9479174 -16 20 C-16.66 20 -17.32 20 -18 20 C-18 32.87 -18 45.74 -18 59 C-18.33 59 -18.66 59 -19 59 C-19.2990937 53.3628506 -19.51545138 47.7304108 -19.65917969 42.0871582 C-19.71913537 40.17292785 -19.80074127 38.25923802 -19.90527344 36.34692383 C-20.79774765 19.58678307 -20.79774765 19.58678307 -16.42480469 14.3684082 C-13.55294831 11.53177884 -10.32396151 9.28347324 -7 7 C-5.54906423 5.63982335 -4.12568908 4.2487363 -2.75 2.8125 C-1.8425 1.884375 -0.935 0.95625 0 0 Z " fill="#6C25F4" transform="translate(257,495)"/>
<path d="M0 0 C1.5 1.375 1.5 1.375 3 3 C3 3.66 3 4.32 3 5 C-6.24 5 -15.48 5 -25 5 C-25 4.34 -25 3.68 -25 3 C-12.625 2.505 -12.625 2.505 0 2 C0 1.34 0 0.68 0 0 Z " fill="#054BD1" transform="translate(178,620)"/>
<path d="M0 0 C0.66 0.33 1.32 0.66 2 1 C2.33 3.97 2.66 6.94 3 10 C-4.59 10 -12.18 10 -20 10 C-19.67 9.01 -19.34 8.02 -19 7 C-12.4 7.33 -5.8 7.66 1 8 C0.67 5.36 0.34 2.72 0 0 Z " fill="#040E4D" transform="translate(577,478)"/>
<path d="M0 0 C0.33 0.66 0.66 1.32 1 2 C1.99 2.33 2.98 2.66 4 3 C4.61294922 4.28777344 4.61294922 4.28777344 5.23828125 5.6015625 C7.52881732 10.02011324 10.62611565 12.95292758 14.1875 16.375 C15.16879883 17.33599609 15.16879883 17.33599609 16.16992188 18.31640625 C17.77330922 19.88468292 19.38328872 21.44548219 21 23 C18 23 18 23 16.33007812 21.70239258 C15.73646484 21.10579834 15.14285156 20.5092041 14.53125 19.89453125 C13.87769531 19.24033203 13.22414062 18.58613281 12.55078125 17.91210938 C11.87402344 17.21923828 11.19726562 16.52636719 10.5 15.8125 C9.82324219 15.13896484 9.14648438 14.46542969 8.44921875 13.77148438 C0 5.23060743 0 5.23060743 0 0 Z " fill="#2E30E7" transform="translate(178,527)"/>
<path d="M0 0 C0.33 0.66 0.66 1.32 1 2 C-0.91653537 5.64079697 -3.31546952 8.95585309 -5.6875 12.3125 C-6.31011719 13.19550781 -6.93273437 14.07851563 -7.57421875 14.98828125 C-8.27998047 15.98408203 -8.27998047 15.98408203 -9 17 C-9.63061523 15.20214844 -9.63061523 15.20214844 -10 13 C-8.43264967 10.57426902 -6.89069827 8.45937639 -5.0625 6.25 C-4.58103516 5.64800781 -4.09957031 5.04601562 -3.60351562 4.42578125 C-2.41364626 2.94138977 -1.20826626 1.46945562 0 0 Z " fill="#3244E5" transform="translate(191,461)"/>
<path d="M0 0 C0.33 0 0.66 0 1 0 C1 2.64 1 5.28 1 8 C1.66 8 2.32 8 3 8 C2.67 8.99 2.34 9.98 2 11 C1.9314505 12.89470816 1.91519628 14.7916834 1.9375 16.6875 C1.94652344 17.68136719 1.95554687 18.67523438 1.96484375 19.69921875 C1.97644531 20.45847656 1.98804688 21.21773438 2 22 C1.34 22.33 0.68 22.66 0 23 C0 15.41 0 7.82 0 0 Z " fill="#AA83FA" transform="translate(263,401)"/>
<path d="M0 0 C0 3.80345877 -1.13786331 4.77701015 -3.5 7.6875 C-4.47453125 8.89986328 -4.47453125 8.89986328 -5.46875 10.13671875 C-5.9740625 10.75160156 -6.479375 11.36648438 -7 12 C-7.33 11.34 -7.66 10.68 -8 10 C-6.95890517 7.43730503 -5.97389657 5.97389657 -4 4 C-4 3.34 -4 2.68 -4 2 C-2.68 1.34 -1.36 0.68 0 0 Z " fill="#4231EB" transform="translate(212,452)"/>
<path d="M0 0 C0.33 0.66 0.66 1.32 1 2 C0.328125 3.91015625 0.328125 3.91015625 -0.75 6.0625 C-1.09546875 6.77535156 -1.4409375 7.48820313 -1.796875 8.22265625 C-3 10 -3 10 -6 11 C-4.54955729 6.89041233 -2.48889248 3.56741255 0 0 Z " fill="#7E0DFA" transform="translate(387,526)"/>
<path d="M0 0 C0.99 0.33 1.98 0.66 3 1 C1.5140084 5.59306496 -0.85014682 8.43569245 -4 12 C-4 9 -4 9 -3 6 C-2.34 5.67 -1.68 5.34 -1 5 C-0.34444881 2.47266765 -0.34444881 2.47266765 0 0 Z " fill="#3537E6" transform="translate(200,464)"/>
<path d="M0 0 C1.40907283 2.81814566 0.50872691 4.17277204 -0.4375 7.125 C-0.72496094 8.03507812 -1.01242188 8.94515625 -1.30859375 9.8828125 C-1.53675781 10.58148438 -1.76492187 11.28015625 -2 12 C-2.66 12 -3.32 12 -4 12 C-3.71640113 10.5608866 -3.42278601 9.12374482 -3.125 7.6875 C-2.96257812 6.88699219 -2.80015625 6.08648437 -2.6328125 5.26171875 C-2 3 -2 3 0 0 Z " fill="#2143E2" transform="translate(180,476)"/>
<path d="M0 0 C0 3.54404336 -0.60989485 4.10267905 -2.875 6.6875 C-3.40867187 7.31011719 -3.94234375 7.93273437 -4.4921875 8.57421875 C-6 10 -6 10 -8 10 C-6.34908222 5.70761377 -3.26245434 3.1206085 0 0 Z " fill="#F0E4FB" transform="translate(292,532)"/>
<path d="M0 0 C0.99 0.33 1.98 0.66 3 1 C2.835 1.598125 2.67 2.19625 2.5 2.8125 C1.8885876 5.11344336 1.8885876 5.11344336 2 8 C1.01 7.67 0.02 7.34 -1 7 C-0.67 4.69 -0.34 2.38 0 0 Z " fill="#7613F5" transform="translate(283,537)"/>
<path d="M0 0 C0.66 0.99 1.32 1.98 2 3 C-0.97 5.475 -0.97 5.475 -4 8 C-4 4.09161134 -2.49432124 2.88405893 0 0 Z " fill="#4634E9" transform="translate(206,441)"/>
<path d="M0 0 C0.33 0.66 0.66 1.32 1 2 C1.99 2.33 2.98 2.66 4 3 C4.6875 5.0625 4.6875 5.0625 5 7 C4.01 7.495 4.01 7.495 3 8 C0 3.375 0 3.375 0 0 Z " fill="#2C47E3" transform="translate(178,527)"/>
<path d="M0 0 C0.33 0 0.66 0 1 0 C1.125 3.375 1.125 3.375 1 7 C0.34 7.66 -0.32 8.32 -1 9 C-1.80967438 6.08517222 -2.21845993 4.53886783 -1.0625 1.6875 C-0.711875 1.130625 -0.36125 0.57375 0 0 Z " fill="#6324F2" transform="translate(230,508)"/>
</svg>
